<?xml version="1.0" encoding="UTF-8" standalone="no"?>
<!DOCTYPE svg PUBLIC "-//W3C//DTD SVG 1.1//EN" "http://www.w3.org/Graphics/SVG/1.1/DTD/svg11.dtd">

<!-- Created with Vectornator (http://vectornator.io/) -->
<svg height="100%" stroke-miterlimit="10" style="fill-rule:nonzero;clip-rule:evenodd;stroke-linecap:round;stroke-linejoin:round;" version="1.1" viewBox="0 0 700 700" width="100%" xml:space="preserve" xmlns="http://www.w3.org/2000/svg" xmlns:vectornator="http://vectornator.io" xmlns:xlink="http://www.w3.org/1999/xlink">
<metadata>
<vectornator:setting key="IsTimeLapseWatermarkDisabled" value="false"/>
<vectornator:setting key="UndoHistoryDisabled" value="true"/>
<vectornator:setting key="VNDimensionsVisible" value="true"/>
<vectornator:setting key="VNSnapToGuides" value="true"/>
<vectornator:setting key="WDCMYKEnabledKey" value="false"/>
<vectornator:setting key="WDDisplayWhiteBackground" value="false"/>
<vectornator:setting key="WDDynamicGuides" value="false"/>
<vectornator:setting key="WDGuidesVisible" value="true"/>
<vectornator:setting key="WDIsolateActiveLayer" value="false"/>
<vectornator:setting key="WDOutlineMode" value="false"/>
<vectornator:setting key="WDRulersVisible" value="true"/>
<vectornator:setting key="WDSnapToEdges" value="false"/>
<vectornator:setting key="WDSnapToGrid" value="false"/>
<vectornator:setting key="WDSnapToPoints" value="false"/>
<vectornator:setting key="WDUnits" value="Points"/>
</metadata>
<defs/>
<g id="Untitled" vectornator:layerName="Untitled">
<g opacity="1">
<path d="M471.23 495.928C467.613 500.366 462.379 503.182 456.688 503.754C450.991 504.331 445.304 502.62 440.871 498.993L305.242 388.241C300.222 384.147 297.311 378.017 297.311 371.54L297.311 154.385C297.456 146.778 301.595 139.808 308.212 136.042C314.824 132.281 322.934 132.281 329.55 136.042C336.162 139.808 340.307 146.778 340.451 154.385L340.451 361.3L468.159 465.599L468.159 465.604C472.587 469.221 475.398 474.445 475.975 480.137C476.552 485.828 474.84 491.51 471.228 495.942L471.23 495.928ZM350 651.987C430.09 651.987 506.899 620.172 563.525 563.539C620.151 506.907 651.973 430.1 651.973 350.014C651.973 269.928 620.158 193.115 563.525 136.489C506.893 79.8628 430.086 48.041 350 48.041C269.914 48.041 193.101 79.8564 136.475 136.489C79.8488 193.121 48.0269 269.928 48.0269 350.014C48.1215 430.074 79.9672 506.824 136.579 563.437C193.186 620.049 269.942 651.895 350.003 651.99L350 651.987ZM350 4.89009C258.473 4.89009 170.685 41.2537 105.971 105.975C41.2499 170.696 4.88627 258.48 4.88627 350.004C4.88627 441.527 41.2499 529.319 105.971 594.033C170.692 658.754 258.476 695.118 350 695.118C441.524 695.118 529.315 658.754 594.029 594.033C658.75 529.312 695.114 441.527 695.114 350.004C695.009 258.506 658.616 170.79 593.919 106.077C529.217 41.3798 441.49 4.98688 349.992 4.88245L350 4.89009Z" fill="#000000" fill-rule="evenodd" opacity="1" stroke="none"/>
</g>
</g>
</svg>
